<?xml version="1.0" encoding="UTF-8" standalone="no"?>
<!DOCTYPE svg PUBLIC "-//W3C//DTD SVG 1.1//EN" "http://www.w3.org/Graphics/SVG/1.1/DTD/svg11.dtd">
<svg xmlns="http://www.w3.org/2000/svg" version="1.1" viewBox="0.00 0.00 231.00 70.00">
<path fill="#7E009E" d="
  M 135.72 0.00
  L 137.13 0.00
  Q 146.61 0.72 146.28 7.98
  Q 146.26 8.52 145.71 8.53
  L 141.81 8.53
  A 0.53 0.51 86.9 0 1 141.30 8.06
  L 141.14 6.63
  Q 141.08 6.11 140.65 5.81
  Q 136.97 3.22 132.93 5.10
  C 131.74 5.66 131.35 7.11 131.35 8.33
  Q 131.37 12.28 131.39 15.99
  A 3.10 3.09 9.7 0 0 133.46 18.91
  Q 137.51 20.33 141.37 21.64
  C 144.83 22.81 146.60 25.92 146.29 29.50
  Q 146.10 31.76 146.29 34.01
  C 146.68 38.56 144.58 41.77 140.02 42.52
  C 134.19 43.48 126.18 42.77 126.49 34.96
  A 0.49 0.48 1.2 0 1 126.98 34.50
  L 131.00 34.49
  A 0.41 0.40 0.7 0 1 131.41 34.90
  C 131.31 40.25 141.39 39.64 141.39 35.05
  Q 141.39 31.74 141.33 28.50
  A 2.94 2.92 -81.2 0 0 139.35 25.78
  Q 135.53 24.47 131.55 23.15
  C 124.83 20.93 126.77 14.36 126.47 9.10
  Q 126.30 6.20 127.18 4.32
  Q 129.08 0.27 135.72 0.00
  Z"
/>
<path fill="#7E009E" d="
  M 174.00 4.47
  L 172.58 4.47
  Q 168.37 4.45 168.37 8.67
  L 168.39 42.23
  Q 168.39 42.47 168.15 42.47
  L 163.78 42.48
  Q 163.52 42.48 163.52 42.21
  Q 163.51 23.59 163.53 6.77
  C 163.55 -0.43 173.70 -0.40 178.39 0.89
  C 181.93 1.87 183.22 4.61 183.19 8.06
  Q 183.06 25.67 183.18 42.23
  Q 183.18 42.49 182.92 42.49
  L 178.50 42.44
  Q 178.23 42.44 178.23 42.16
  L 178.26 8.75
  Q 178.27 4.49 174.00 4.47
  Z"
/>
<path fill="#7E009E" d="
  M 115.00 5.05
  L 115.02 42.09
  A 0.39 0.39 0.0 0 1 114.63 42.48
  L 110.59 42.45
  A 0.39 0.39 0.0 0 1 110.20 42.06
  L 110.25 5.03
  A 0.39 0.39 0.0 0 0 109.86 4.64
  L 103.13 4.64
  A 0.39 0.39 0.0 0 1 102.74 4.25
  L 102.74 1.01
  A 0.39 0.39 0.0 0 1 103.13 0.62
  L 122.09 0.63
  A 0.39 0.39 0.0 0 1 122.48 1.02
  L 122.49 4.24
  A 0.39 0.39 0.0 0 1 122.10 4.63
  L 115.39 4.66
  A 0.39 0.39 0.0 0 0 115.00 5.05
  Z"
/>
<path fill="#7E009E" d="
  M 193.73 24.26
  L 193.74 35.37
  A 3.14 3.13 0.1 0 0 196.87 38.50
  L 206.26 38.50
  A 0.63 0.62 -85.3 0 1 206.87 39.23
  Q 206.65 40.50 206.87 41.76
  Q 206.98 42.43 206.30 42.44
  Q 201.03 42.52 195.55 42.47
  C 191.25 42.43 188.82 39.37 188.84 35.34
  Q 188.92 22.05 188.84 7.87
  C 188.82 4.45 190.43 1.56 193.97 0.75
  Q 194.75 0.57 200.35 0.58
  Q 203.37 0.58 206.42 0.69
  Q 206.77 0.70 206.78 1.05
  L 206.84 4.16
  A 0.37 0.37 0.0 0 1 206.47 4.54
  L 196.96 4.55
  A 3.24 3.24 0.0 0 0 193.73 7.79
  L 193.74 18.79
  Q 193.74 19.35 194.29 19.35
  L 203.78 19.32
  Q 204.25 19.32 204.25 19.78
  L 204.25 23.25
  Q 204.25 23.76 203.75 23.76
  L 194.24 23.76
  Q 193.73 23.76 193.73 24.26
  Z"
/>
<path fill="#7E009E" d="
  M 231.00 0.70
  L 231.00 4.58
  L 224.03 4.74
  Q 223.52 4.76 223.52 5.27
  L 223.56 42.17
  Q 223.56 42.46 223.27 42.46
  L 218.99 42.49
  A 0.25 0.25 0.0 0 1 218.74 42.24
  L 218.75 5.33
  Q 218.75 4.65 218.08 4.65
  L 211.81 4.63
  A 0.56 0.56 0.0 0 1 211.25 4.07
  L 211.29 1.19
  Q 211.30 0.66 211.82 0.66
  L 231.00 0.70
  Z"
/>
<path fill="#7E009E" d="
  M 0.00 15.11
  L 0.00 8.32
  C 0.69 4.43 3.46 1.25 7.45 1.25
  Q 25.09 1.25 44.59 1.23
  C 49.68 1.22 52.89 5.00 52.55 9.99
  C 52.39 12.33 52.89 14.90 52.08 17.11
  C 49.85 23.16 44.19 22.07 39.16 22.25
  A 2.49 2.48 88.8 0 0 36.77 24.75
  L 36.81 34.82
  Q 36.83 37.28 34.39 37.69
  Q 33.98 37.76 33.59 37.58
  Q 31.62 36.73 31.68 34.58
  Q 31.81 30.14 31.64 25.49
  Q 31.55 23.05 32.49 21.21
  C 35.19 15.95 40.26 17.17 45.02 16.96
  A 2.44 2.43 -1.2 0 0 47.36 14.53
  L 47.35 8.74
  A 2.36 2.36 0.0 0 0 44.99 6.38
  L 7.72 6.38
  A 2.41 2.40 0.7 0 0 5.31 8.72
  Q 5.24 11.53 5.31 14.46
  Q 5.37 17.08 8.07 17.14
  C 12.72 17.25 17.48 16.23 20.09 21.33
  Q 20.95 23.00 20.93 25.26
  Q 20.83 42.26 20.90 61.55
  A 2.21 2.20 89.9 0 0 23.10 63.75
  L 29.26 63.75
  A 2.27 2.26 -0.0 0 0 31.53 61.49
  L 31.50 51.57
  Q 31.49 49.47 33.30 48.41
  Q 33.84 48.10 34.39 48.25
  Q 36.83 48.89 36.76 51.41
  Q 36.65 55.77 36.78 60.46
  C 36.87 63.62 35.55 66.55 32.76 68.01
  C 29.84 69.54 23.47 69.25 20.63 68.41
  C 17.71 67.56 15.71 64.39 15.72 61.30
  Q 15.78 41.03 15.73 24.69
  A 2.37 2.37 0.0 0 0 13.57 22.34
  C 10.60 22.09 7.32 22.82 4.60 21.57
  Q 0.79 19.82 0.00 15.11
  Z"
/>
<path fill="#7E009E" d="
  M 62.79 64.02
  A 2.51 2.48 62.3 0 0 64.23 64.48
  L 85.49 64.48
  A 2.48 2.48 0.0 0 0 87.97 62.00
  L 87.97 40.20
  A 2.45 2.44 0.5 0 0 85.56 37.76
  Q 76.23 37.61 66.72 37.79
  C 60.98 37.90 56.53 35.56 56.64 29.40
  Q 56.81 19.11 56.62 9.16
  C 56.54 4.90 59.86 1.20 64.22 1.23
  Q 74.25 1.28 84.44 1.21
  C 89.63 1.17 92.59 5.01 92.44 9.94
  Q 92.29 14.81 92.41 18.99
  Q 92.47 21.13 90.41 21.71
  Q 90.08 21.80 89.74 21.77
  Q 87.24 21.52 87.24 19.01
  L 87.24 9.19
  Q 87.25 6.38 84.44 6.38
  L 64.32 6.38
  A 2.55 2.54 90.0 0 0 61.78 8.93
  L 61.78 29.80
  A 2.72 2.72 0.0 0 0 64.51 32.52
  Q 75.16 32.46 85.29 32.54
  C 90.07 32.58 93.28 36.13 93.24 40.72
  Q 93.17 50.64 93.25 61.26
  Q 93.27 63.43 92.33 65.35
  C 90.62 68.90 87.42 69.78 83.75 69.70
  Q 74.68 69.48 65.93 69.71
  C 60.25 69.85 56.41 66.82 56.62 60.90
  Q 56.81 55.79 56.64 51.38
  Q 56.56 49.21 58.55 48.35
  Q 58.95 48.18 59.38 48.26
  Q 61.87 48.72 61.83 51.26
  Q 61.73 56.56 61.79 61.99
  Q 61.80 63.30 62.79 64.02
  Z"
/>
<circle fill="#7E009E" cx="89.49" cy="25.38" r="2.38"/>
<circle fill="#7E009E" cx="34.33" cy="42.60" r="2.38"/>
<circle fill="#7E009E" cx="59.79" cy="43.61" r="2.39"/>
<path fill="#7E009E" d="
  M 109.02 52.02
  L 109.04 69.31
  A 0.41 0.41 0.0 0 1 108.62 69.72
  L 107.12 69.71
  A 0.41 0.41 0.0 0 1 106.71 69.29
  L 106.77 52.03
  A 0.41 0.41 0.0 0 0 106.38 51.62
  L 103.47 51.51
  A 0.41 0.41 0.0 0 1 103.08 51.11
  L 103.04 50.06
  A 0.41 0.41 0.0 0 1 103.45 49.64
  L 112.29 49.63
  A 0.41 0.41 0.0 0 1 112.70 50.05
  L 112.68 51.16
  A 0.41 0.41 0.0 0 1 112.28 51.56
  L 109.42 51.61
  A 0.41 0.41 0.0 0 0 109.02 52.02
  Z"
/>
<path fill="#7E009E" d="
  M 124.52 60.75
  Q 123.79 60.75 123.79 61.48
  L 123.78 66.32
  A 1.54 1.53 -0.0 0 0 125.32 67.85
  L 129.51 67.84
  Q 130.17 67.84 130.18 68.51
  L 130.18 69.04
  Q 130.19 69.66 129.57 69.71
  C 126.67 69.92 121.54 70.58 121.54 66.41
  Q 121.54 59.80 121.53 52.66
  A 3.02 3.02 0.0 0 1 124.54 49.63
  L 129.54 49.62
  Q 130.22 49.62 130.20 50.29
  L 130.19 50.92
  Q 130.17 51.51 129.58 51.52
  L 125.27 51.54
  Q 123.80 51.55 123.80 53.02
  L 123.77 57.68
  Q 123.77 58.58 124.68 58.59
  L 128.19 58.61
  Q 129.01 58.62 129.00 59.44
  L 129.00 60.01
  Q 128.99 60.75 128.24 60.75
  L 124.52 60.75
  Z"
/>
<path fill="#7E009E" d="
  M 143.61 67.81
  L 147.58 67.81
  A 0.53 0.53 0.0 0 1 148.11 68.33
  L 148.13 69.20
  Q 148.15 69.77 147.57 69.77
  C 144.88 69.73 139.74 70.70 139.79 66.28
  Q 139.87 58.34 139.78 50.08
  Q 139.78 49.72 140.13 49.67
  Q 141.03 49.54 141.93 49.72
  Q 142.21 49.77 142.21 50.06
  L 142.16 66.36
  A 1.45 1.45 0.0 0 0 143.61 67.81
  Z"
/>
<path fill="#7E009E" d="
  M 160.78 60.75
  Q 160.07 60.75 160.08 61.47
  L 160.09 66.17
  Q 160.10 67.57 161.48 67.74
  Q 163.56 67.99 165.72 67.79
  Q 166.52 67.71 166.50 68.51
  L 166.49 69.00
  Q 166.48 69.73 165.75 69.75
  C 162.96 69.82 157.69 70.70 157.72 66.19
  Q 157.77 59.42 157.74 53.25
  C 157.73 48.63 162.93 49.50 165.94 49.66
  Q 166.52 49.69 166.51 50.27
  L 166.51 50.88
  Q 166.51 51.53 165.87 51.53
  L 161.92 51.53
  Q 160.11 51.53 160.10 53.33
  L 160.07 57.57
  Q 160.06 58.58 161.07 58.58
  L 164.55 58.60
  Q 165.24 58.61 165.24 59.30
  L 165.24 60.01
  Q 165.24 60.75 164.49 60.75
  L 160.78 60.75
  Z"
/>
<path fill="#7E009E" d="
  M 181.79 70.00
  L 179.76 70.00
  Q 177.65 69.63 176.53 68.20
  Q 176.22 67.79 176.22 67.28
  L 176.22 52.21
  Q 176.22 51.52 176.67 50.99
  C 178.86 48.45 184.94 48.62 185.72 52.72
  Q 185.84 53.33 185.21 53.36
  L 183.82 53.42
  Q 183.45 53.44 183.32 53.08
  Q 182.58 51.00 179.92 51.51
  A 1.75 1.75 0.0 0 0 178.49 53.24
  L 178.50 66.54
  A 1.08 1.07 -79.9 0 0 179.20 67.55
  Q 182.33 68.73 183.30 66.32
  Q 183.50 65.81 184.04 65.86
  L 184.97 65.95
  Q 185.68 66.02 185.61 66.73
  Q 185.31 69.45 181.79 70.00
  Z"
/>
<path fill="#7E009E" d="
  M 200.09 70.00
  L 198.09 70.00
  Q 194.44 69.23 194.48 67.03
  Q 194.60 60.19 194.47 53.57
  Q 194.39 49.45 198.51 49.46
  L 200.01 49.46
  Q 204.09 49.47 204.05 53.55
  Q 203.99 59.65 204.04 66.38
  C 204.06 68.70 202.18 69.74 200.09 70.00
  Z
  M 201.73 53.27
  A 1.76 1.76 0.0 0 0 199.97 51.51
  L 198.53 51.51
  A 1.76 1.76 0.0 0 0 196.77 53.27
  L 196.77 66.09
  A 1.76 1.76 0.0 0 0 198.53 67.85
  L 199.97 67.85
  A 1.76 1.76 0.0 0 0 201.73 66.09
  L 201.73 53.27
  Z"
/>
<path fill="#7E009E" d="
  M 219.19 51.52
  L 218.33 51.50
  Q 216.10 51.45 216.11 53.67
  L 216.14 68.94
  Q 216.14 69.77 215.31 69.75
  L 214.28 69.73
  Q 213.74 69.72 213.74 69.17
  Q 213.76 60.66 213.73 52.59
  C 213.72 48.81 219.44 49.13 221.54 50.10
  A 1.12 1.10 -43.9 0 0 222.43 50.11
  C 224.74 49.10 230.36 48.80 230.30 52.73
  Q 230.19 61.42 230.30 69.19
  Q 230.31 69.71 229.79 69.72
  L 228.35 69.75
  Q 227.94 69.76 227.94 69.35
  L 227.97 53.61
  Q 227.98 51.50 225.86 51.50
  L 225.20 51.50
  Q 223.15 51.51 223.16 53.55
  L 223.20 69.14
  Q 223.21 69.73 222.61 69.73
  L 221.26 69.74
  Q 220.77 69.74 220.77 69.26
  L 220.82 53.19
  A 1.66 1.66 0.0 0 0 219.19 51.52
  Z"
/>
</svg>
